<?xml version="1.0" encoding="UTF-8" standalone="no"?>
<svg
   xmlns:dc="http://purl.org/dc/elements/1.1/"
   xmlns:cc="http://creativecommons.org/ns#"
   xmlns:rdf="http://www.w3.org/1999/02/22-rdf-syntax-ns#"
   xmlns:svg="http://www.w3.org/2000/svg"
   xmlns="http://www.w3.org/2000/svg"
   xmlns:xlink="http://www.w3.org/1999/xlink"
   xmlns:sodipodi="http://sodipodi.sourceforge.net/DTD/sodipodi-0.dtd"
   xmlns:inkscape="http://www.inkscape.org/namespaces/inkscape"
   width="148mm"
   height="105mm"
   viewBox="0 0 148 105"
   version="1.1"
   id="svg8"
   sodipodi:docname="partial_correlation.svg"
   inkscape:version="1.0.2-2 (e86c870879, 2021-01-15)"
   inkscape:export-filename="C:\Users\Ben\OneDrive\PhD\teaching\WS21 - R Übung (Statistik 1)\Skript\img\partial_correlation.png"
   inkscape:export-xdpi="658.29999"
   inkscape:export-ydpi="658.29999">
  <defs
     id="defs2">
    <marker
       style="overflow:visible"
       id="Arrow1Lstart"
       refX="0.0"
       refY="0.0"
       orient="auto"
       inkscape:stockid="Arrow1Lstart"
       inkscape:isstock="true">
      <path
         transform="scale(0.8) translate(12.5,0)"
         style="fill-rule:evenodd;stroke:#000000;stroke-width:1pt;stroke-opacity:1;fill:#000000;fill-opacity:1"
         d="M 0.0,0.0 L 5.0,-5.0 L -12.5,0.0 L 5.0,5.0 L 0.0,0.0 z "
         id="path960" />
    </marker>
    <marker
       style="overflow:visible;"
       id="marker1316"
       refX="0.0"
       refY="0.0"
       orient="auto"
       inkscape:stockid="Arrow1Lend"
       inkscape:isstock="true">
      <path
         transform="scale(0.8) rotate(180) translate(12.5,0)"
         style="fill-rule:evenodd;stroke:#000000;stroke-width:1pt;stroke-opacity:1;fill:#000000;fill-opacity:1"
         d="M 0.0,0.0 L 5.0,-5.0 L -12.5,0.0 L 5.0,5.0 L 0.0,0.0 z "
         id="path1314" />
    </marker>
    <inkscape:path-effect
       effect="bspline"
       id="path-effect1294"
       is_visible="true"
       lpeversion="1"
       weight="33.333333"
       steps="2"
       helper_size="0"
       apply_no_weight="true"
       apply_with_weight="true"
       only_selected="false" />
    <marker
       style="overflow:visible;"
       id="marker1254"
       refX="0.0"
       refY="0.0"
       orient="auto"
       inkscape:stockid="Arrow1Lend"
       inkscape:isstock="true">
      <path
         transform="scale(0.8) rotate(180) translate(12.5,0)"
         style="fill-rule:evenodd;stroke:#000000;stroke-width:1pt;stroke-opacity:1;fill:#000000;fill-opacity:1"
         d="M 0.0,0.0 L 5.0,-5.0 L -12.5,0.0 L 5.0,5.0 L 0.0,0.0 z "
         id="path1252" />
    </marker>
    <marker
       style="overflow:visible;"
       id="marker1244"
       refX="0.0"
       refY="0.0"
       orient="auto"
       inkscape:stockid="Arrow1Lend"
       inkscape:isstock="true"
       inkscape:collect="always">
      <path
         transform="scale(0.8) rotate(180) translate(12.5,0)"
         style="fill-rule:evenodd;stroke:#000000;stroke-width:1pt;stroke-opacity:1;fill:#000000;fill-opacity:1"
         d="M 0.0,0.0 L 5.0,-5.0 L -12.5,0.0 L 5.0,5.0 L 0.0,0.0 z "
         id="path1242" />
    </marker>
    <inkscape:path-effect
       effect="bspline"
       id="path-effect957"
       is_visible="true"
       lpeversion="1"
       weight="33.333333"
       steps="2"
       helper_size="0"
       apply_no_weight="true"
       apply_with_weight="true"
       only_selected="false" />
    <inkscape:path-effect
       effect="bspline"
       id="path-effect934"
       is_visible="true"
       lpeversion="1"
       weight="33.333333"
       steps="2"
       helper_size="0"
       apply_no_weight="true"
       apply_with_weight="true"
       only_selected="false" />
    <g
       id="g3511">
      <symbol
         overflow="visible"
         id="symbol5920">
        <path
           style="stroke:none;"
           d=""
           id="path3189" />
      </symbol>
      <symbol
         overflow="visible"
         id="symbol6747">
        <path
           style="stroke:none;"
           d="M 4.828125 -4.09375 L 4 -6.078125 C 3.96875 -6.15625 3.953125 -6.203125 3.953125 -6.203125 C 3.953125 -6.265625 4.109375 -6.453125 4.53125 -6.5 C 4.640625 -6.515625 4.734375 -6.515625 4.734375 -6.6875 C 4.734375 -6.8125 4.609375 -6.8125 4.578125 -6.8125 C 4.171875 -6.8125 3.75 -6.78125 3.328125 -6.78125 C 3.078125 -6.78125 2.46875 -6.8125 2.21875 -6.8125 C 2.15625 -6.8125 2.03125 -6.8125 2.03125 -6.609375 C 2.03125 -6.5 2.140625 -6.5 2.265625 -6.5 C 2.859375 -6.5 2.921875 -6.40625 3.015625 -6.1875 L 4.1875 -3.40625 L 2.078125 -1.140625 L 1.953125 -1.03125 C 1.46875 -0.5 1 -0.34375 0.484375 -0.3125 C 0.359375 -0.296875 0.265625 -0.296875 0.265625 -0.109375 C 0.265625 -0.09375 0.265625 0 0.40625 0 C 0.703125 0 1.03125 -0.03125 1.328125 -0.03125 C 1.703125 -0.03125 2.09375 0 2.453125 0 C 2.515625 0 2.625 0 2.625 -0.203125 C 2.625 -0.296875 2.53125 -0.3125 2.515625 -0.3125 C 2.421875 -0.3125 2.109375 -0.34375 2.109375 -0.625 C 2.109375 -0.78125 2.265625 -0.9375 2.375 -1.0625 L 3.40625 -2.140625 L 4.296875 -3.125 L 5.296875 -0.734375 C 5.34375 -0.625 5.359375 -0.625 5.359375 -0.59375 C 5.359375 -0.515625 5.15625 -0.34375 4.78125 -0.3125 C 4.671875 -0.296875 4.578125 -0.296875 4.578125 -0.125 C 4.578125 0 4.6875 0 4.71875 0 C 5 0 5.703125 -0.03125 5.984375 -0.03125 C 6.234375 -0.03125 6.84375 0 7.09375 0 C 7.15625 0 7.28125 0 7.28125 -0.1875 C 7.28125 -0.3125 7.171875 -0.3125 7.09375 -0.3125 C 6.4375 -0.3125 6.40625 -0.34375 6.234375 -0.75 C 5.859375 -1.671875 5.1875 -3.234375 4.953125 -3.828125 C 5.625 -4.53125 6.671875 -5.71875 7 -5.984375 C 7.28125 -6.234375 7.671875 -6.46875 8.265625 -6.5 C 8.390625 -6.515625 8.484375 -6.515625 8.484375 -6.703125 C 8.484375 -6.703125 8.484375 -6.8125 8.359375 -6.8125 C 8.0625 -6.8125 7.71875 -6.78125 7.421875 -6.78125 C 7.046875 -6.78125 6.671875 -6.8125 6.3125 -6.8125 C 6.25 -6.8125 6.125 -6.8125 6.125 -6.609375 C 6.125 -6.546875 6.171875 -6.515625 6.234375 -6.5 C 6.328125 -6.484375 6.640625 -6.46875 6.640625 -6.1875 C 6.640625 -6.046875 6.53125 -5.921875 6.453125 -5.828125 Z M 4.828125 -4.09375 "
           id="path3701" />
      </symbol>
    </g>
    <g
       id="g187">
      <symbol
         overflow="visible"
         id="symbol4791">
        <path
           style="stroke:none;"
           d=""
           id="path6749" />
      </symbol>
      <symbol
         overflow="visible"
         id="symbol2511">
        <path
           style="stroke:none;"
           d="M 7.171875 -6.5625 C 7.1875 -6.609375 7.203125 -6.65625 7.203125 -6.71875 C 7.203125 -6.8125 7.15625 -6.8125 6.953125 -6.8125 L 2.75 -6.8125 C 2.515625 -6.8125 2.5 -6.796875 2.4375 -6.609375 L 1.890625 -4.8125 C 1.875 -4.765625 1.859375 -4.6875 1.859375 -4.671875 C 1.859375 -4.671875 1.859375 -4.5625 1.984375 -4.5625 C 2.078125 -4.5625 2.09375 -4.640625 2.109375 -4.671875 C 2.5 -5.84375 3.015625 -6.5 4.5625 -6.5 L 6.1875 -6.5 L 0.625 -0.265625 C 0.625 -0.265625 0.578125 -0.125 0.578125 -0.09375 C 0.578125 0 0.640625 0 0.828125 0 L 5.15625 0 C 5.40625 0 5.40625 -0.015625 5.46875 -0.203125 L 6.1875 -2.40625 C 6.1875 -2.4375 6.21875 -2.515625 6.21875 -2.546875 C 6.21875 -2.609375 6.1875 -2.65625 6.09375 -2.65625 C 6 -2.65625 5.984375 -2.625 5.921875 -2.40625 C 5.484375 -1.0625 5 -0.34375 3.3125 -0.34375 L 1.609375 -0.34375 Z M 7.171875 -6.5625 "
           id="path7771" />
      </symbol>
    </g>
    <g
       id="g5285">
      <symbol
         overflow="visible"
         id="symbol974">
        <path
           style="stroke:none;"
           d=""
           id="path8223" />
      </symbol>
      <symbol
         overflow="visible"
         id="symbol1696">
        <path
           style="stroke:none;"
           d="M 5.953125 -5.671875 L 6.09375 -5.8125 C 6.390625 -6.109375 6.71875 -6.453125 7.390625 -6.5 C 7.5 -6.515625 7.59375 -6.515625 7.59375 -6.6875 C 7.59375 -6.765625 7.546875 -6.8125 7.46875 -6.8125 C 7.203125 -6.8125 6.921875 -6.78125 6.65625 -6.78125 C 6.3125 -6.78125 5.96875 -6.8125 5.65625 -6.8125 C 5.59375 -6.8125 5.46875 -6.8125 5.46875 -6.625 C 5.46875 -6.515625 5.5625 -6.5 5.609375 -6.5 C 5.6875 -6.5 5.96875 -6.484375 5.96875 -6.265625 C 5.96875 -6.09375 5.734375 -5.84375 5.703125 -5.796875 L 3.390625 -3.125 L 2.296875 -6.09375 C 2.234375 -6.234375 2.234375 -6.25 2.234375 -6.265625 C 2.234375 -6.5 2.71875 -6.5 2.828125 -6.5 C 2.953125 -6.5 3.0625 -6.5 3.0625 -6.703125 C 3.0625 -6.8125 2.9375 -6.8125 2.90625 -6.8125 C 2.625 -6.8125 1.9375 -6.78125 1.65625 -6.78125 C 1.40625 -6.78125 0.78125 -6.8125 0.53125 -6.8125 C 0.484375 -6.8125 0.34375 -6.8125 0.34375 -6.609375 C 0.34375 -6.5 0.453125 -6.5 0.578125 -6.5 C 1.171875 -6.5 1.21875 -6.40625 1.3125 -6.15625 L 2.53125 -2.875 C 2.546875 -2.84375 2.578125 -2.734375 2.578125 -2.71875 C 2.578125 -2.6875 2.171875 -1.078125 2.125 -0.890625 C 2 -0.34375 1.984375 -0.3125 1.1875 -0.3125 C 1 -0.3125 0.921875 -0.3125 0.921875 -0.109375 C 0.921875 0 1.03125 0 1.0625 0 C 1.328125 0 2.03125 -0.03125 2.3125 -0.03125 C 2.59375 -0.03125 3.3125 0 3.59375 0 C 3.65625 0 3.78125 0 3.78125 -0.203125 C 3.78125 -0.3125 3.6875 -0.3125 3.5 -0.3125 C 3.484375 -0.3125 3.296875 -0.3125 3.125 -0.328125 C 2.90625 -0.34375 2.84375 -0.375 2.84375 -0.484375 C 2.84375 -0.5625 2.9375 -0.90625 2.984375 -1.109375 L 3.34375 -2.515625 C 3.390625 -2.71875 3.40625 -2.734375 3.484375 -2.828125 Z M 5.953125 -5.671875 "
           id="path9738" />
      </symbol>
    </g>
    <g
       id="g8077">
      <symbol
         overflow="visible"
         id="symbol8832">
        <path
           style="stroke:none;"
           d=""
           id="path8251" />
      </symbol>
      <symbol
         overflow="visible"
         id="symbol9771">
        <path
           style="stroke:none;"
           d="M 0.875 -0.59375 C 0.84375 -0.4375 0.78125 -0.203125 0.78125 -0.15625 C 0.78125 0.015625 0.921875 0.109375 1.078125 0.109375 C 1.203125 0.109375 1.375 0.03125 1.453125 -0.171875 C 1.46875 -0.203125 1.796875 -1.5625 1.84375 -1.75 C 1.921875 -2.078125 2.109375 -2.765625 2.15625 -3.046875 C 2.203125 -3.171875 2.484375 -3.640625 2.71875 -3.859375 C 2.796875 -3.921875 3.09375 -4.1875 3.515625 -4.1875 C 3.78125 -4.1875 3.921875 -4.0625 3.9375 -4.0625 C 3.640625 -4.015625 3.421875 -3.78125 3.421875 -3.515625 C 3.421875 -3.359375 3.53125 -3.171875 3.796875 -3.171875 C 4.0625 -3.171875 4.34375 -3.40625 4.34375 -3.765625 C 4.34375 -4.109375 4.03125 -4.40625 3.515625 -4.40625 C 2.875 -4.40625 2.4375 -3.921875 2.25 -3.640625 C 2.15625 -4.09375 1.796875 -4.40625 1.328125 -4.40625 C 0.875 -4.40625 0.6875 -4.015625 0.59375 -3.84375 C 0.421875 -3.5 0.296875 -2.90625 0.296875 -2.875 C 0.296875 -2.765625 0.390625 -2.765625 0.40625 -2.765625 C 0.515625 -2.765625 0.515625 -2.78125 0.578125 -3 C 0.75 -3.703125 0.953125 -4.1875 1.3125 -4.1875 C 1.46875 -4.1875 1.609375 -4.109375 1.609375 -3.734375 C 1.609375 -3.515625 1.578125 -3.40625 1.453125 -2.890625 Z M 0.875 -0.59375 "
           id="path8676" />
      </symbol>
      <symbol
         overflow="visible"
         id="symbol6064">
        <path
           style="stroke:none;"
           d=""
           id="path575" />
      </symbol>
      <symbol
         overflow="visible"
         id="symbol5201">
        <path
           style="stroke:none;"
           d="M 1.734375 -0.734375 C 1.671875 -0.5 1.4375 -0.125 1.078125 -0.125 C 1.0625 -0.125 0.84375 -0.125 0.703125 -0.21875 C 0.984375 -0.3125 1.015625 -0.5625 1.015625 -0.609375 C 1.015625 -0.765625 0.890625 -0.859375 0.734375 -0.859375 C 0.53125 -0.859375 0.328125 -0.703125 0.328125 -0.4375 C 0.328125 -0.09375 0.71875 0.0625 1.0625 0.0625 C 1.390625 0.0625 1.671875 -0.125 1.84375 -0.421875 C 2.015625 -0.0625 2.390625 0.0625 2.671875 0.0625 C 3.484375 0.0625 3.90625 -0.796875 3.90625 -1 C 3.90625 -1.09375 3.8125 -1.09375 3.796875 -1.09375 C 3.6875 -1.09375 3.6875 -1.046875 3.65625 -0.96875 C 3.515625 -0.484375 3.09375 -0.125 2.703125 -0.125 C 2.421875 -0.125 2.28125 -0.3125 2.28125 -0.578125 C 2.28125 -0.765625 2.453125 -1.390625 2.640625 -2.171875 C 2.78125 -2.703125 3.09375 -2.875 3.328125 -2.875 C 3.34375 -2.875 3.546875 -2.875 3.703125 -2.78125 C 3.484375 -2.71875 3.390625 -2.515625 3.390625 -2.390625 C 3.390625 -2.25 3.515625 -2.140625 3.671875 -2.140625 C 3.828125 -2.140625 4.0625 -2.265625 4.0625 -2.5625 C 4.0625 -2.953125 3.609375 -3.078125 3.34375 -3.078125 C 2.984375 -3.078125 2.703125 -2.84375 2.5625 -2.578125 C 2.4375 -2.859375 2.109375 -3.078125 1.71875 -3.078125 C 0.9375 -3.078125 0.5 -2.21875 0.5 -2 C 0.5 -1.921875 0.59375 -1.921875 0.609375 -1.921875 C 0.703125 -1.921875 0.703125 -1.9375 0.75 -2.03125 C 0.921875 -2.578125 1.359375 -2.875 1.703125 -2.875 C 1.9375 -2.875 2.125 -2.75 2.125 -2.421875 C 2.125 -2.28125 2.03125 -1.9375 1.96875 -1.6875 Z M 1.734375 -0.734375 "
           id="path7942" />
      </symbol>
      <symbol
         overflow="visible"
         id="symbol9554">
        <path
           style="stroke:none;"
           d="M 3.875 -2.625 C 3.90625 -2.71875 3.90625 -2.734375 3.90625 -2.78125 C 3.90625 -2.921875 3.796875 -3 3.671875 -3 C 3.59375 -3 3.46875 -2.96875 3.390625 -2.84375 C 3.359375 -2.796875 3.3125 -2.578125 3.28125 -2.4375 L 3.125 -1.859375 C 3.09375 -1.6875 2.875 -0.8125 2.84375 -0.734375 C 2.84375 -0.734375 2.53125 -0.125 2 -0.125 C 1.515625 -0.125 1.515625 -0.578125 1.515625 -0.703125 C 1.515625 -1.078125 1.671875 -1.515625 1.890625 -2.0625 C 1.96875 -2.28125 2 -2.359375 2 -2.484375 C 2 -2.8125 1.71875 -3.078125 1.34375 -3.078125 C 0.640625 -3.078125 0.328125 -2.125 0.328125 -2 C 0.328125 -1.921875 0.421875 -1.921875 0.453125 -1.921875 C 0.546875 -1.921875 0.546875 -1.953125 0.578125 -2.03125 C 0.75 -2.609375 1.046875 -2.875 1.328125 -2.875 C 1.4375 -2.875 1.5 -2.796875 1.5 -2.640625 C 1.5 -2.46875 1.4375 -2.328125 1.40625 -2.234375 C 1.0625 -1.375 1 -1.125 1 -0.8125 C 1 -0.703125 1 -0.375 1.265625 -0.140625 C 1.484375 0.03125 1.78125 0.0625 1.96875 0.0625 C 2.25 0.0625 2.5 -0.03125 2.71875 -0.25 C 2.640625 0.140625 2.5625 0.4375 2.265625 0.78125 C 2.078125 1 1.796875 1.21875 1.421875 1.21875 C 1.375 1.21875 1.046875 1.21875 0.90625 1 C 1.28125 0.953125 1.28125 0.625 1.28125 0.609375 C 1.28125 0.390625 1.078125 0.34375 1.015625 0.34375 C 0.84375 0.34375 0.609375 0.484375 0.609375 0.8125 C 0.609375 1.15625 0.9375 1.421875 1.4375 1.421875 C 2.140625 1.421875 3 0.875 3.21875 0 Z M 3.875 -2.625 "
           id="path2758" />
      </symbol>
    </g>
    <g
       id="g82">
      <symbol
         overflow="visible"
         id="symbol8322">
        <path
           style="stroke:none;"
           d=""
           id="path1731" />
      </symbol>
      <symbol
         overflow="visible"
         id="symbol9450">
        <path
           style="stroke:none;"
           d="M 0.875 -0.59375 C 0.84375 -0.4375 0.78125 -0.203125 0.78125 -0.15625 C 0.78125 0.015625 0.921875 0.109375 1.078125 0.109375 C 1.203125 0.109375 1.375 0.03125 1.453125 -0.171875 C 1.46875 -0.203125 1.796875 -1.5625 1.84375 -1.75 C 1.921875 -2.078125 2.109375 -2.765625 2.15625 -3.046875 C 2.203125 -3.171875 2.484375 -3.640625 2.71875 -3.859375 C 2.796875 -3.921875 3.09375 -4.1875 3.515625 -4.1875 C 3.78125 -4.1875 3.921875 -4.0625 3.9375 -4.0625 C 3.640625 -4.015625 3.421875 -3.78125 3.421875 -3.515625 C 3.421875 -3.359375 3.53125 -3.171875 3.796875 -3.171875 C 4.0625 -3.171875 4.34375 -3.40625 4.34375 -3.765625 C 4.34375 -4.109375 4.03125 -4.40625 3.515625 -4.40625 C 2.875 -4.40625 2.4375 -3.921875 2.25 -3.640625 C 2.15625 -4.09375 1.796875 -4.40625 1.328125 -4.40625 C 0.875 -4.40625 0.6875 -4.015625 0.59375 -3.84375 C 0.421875 -3.5 0.296875 -2.90625 0.296875 -2.875 C 0.296875 -2.765625 0.390625 -2.765625 0.40625 -2.765625 C 0.515625 -2.765625 0.515625 -2.78125 0.578125 -3 C 0.75 -3.703125 0.953125 -4.1875 1.3125 -4.1875 C 1.46875 -4.1875 1.609375 -4.109375 1.609375 -3.734375 C 1.609375 -3.515625 1.578125 -3.40625 1.453125 -2.890625 Z M 0.875 -0.59375 "
           id="path4502" />
      </symbol>
      <symbol
         overflow="visible"
         id="symbol7856">
        <path
           style="stroke:none;"
           d=""
           id="path2432" />
      </symbol>
      <symbol
         overflow="visible"
         id="symbol43">
        <path
           style="stroke:none;"
           d="M 3.875 -2.65625 L 4.53125 -3.328125 C 5.421875 -4.203125 5.703125 -4.46875 6.328125 -4.515625 C 6.421875 -4.515625 6.5 -4.515625 6.5 -4.65625 C 6.5 -4.734375 6.421875 -4.765625 6.40625 -4.765625 C 6.203125 -4.765625 5.953125 -4.734375 5.75 -4.734375 C 5.5625 -4.734375 5.125 -4.765625 4.9375 -4.765625 C 4.890625 -4.765625 4.796875 -4.734375 4.796875 -4.609375 C 4.796875 -4.59375 4.796875 -4.515625 4.90625 -4.515625 C 4.96875 -4.5 5.140625 -4.484375 5.140625 -4.328125 C 5.140625 -4.234375 5.03125 -4.125 4.96875 -4.046875 C 4.90625 -4 4.03125 -3.140625 3.765625 -2.875 L 3.0625 -4.234375 C 3.046875 -4.265625 3.03125 -4.3125 3.03125 -4.328125 C 3.03125 -4.390625 3.15625 -4.5 3.40625 -4.515625 C 3.453125 -4.515625 3.546875 -4.515625 3.546875 -4.65625 C 3.546875 -4.671875 3.546875 -4.765625 3.421875 -4.765625 C 3.28125 -4.765625 3.109375 -4.734375 2.96875 -4.734375 C 2.8125 -4.734375 2.65625 -4.734375 2.515625 -4.734375 C 2.390625 -4.734375 2.21875 -4.734375 2.09375 -4.734375 C 1.984375 -4.75 1.828125 -4.765625 1.71875 -4.765625 C 1.6875 -4.765625 1.578125 -4.765625 1.578125 -4.609375 C 1.578125 -4.515625 1.671875 -4.515625 1.78125 -4.515625 C 2.1875 -4.515625 2.21875 -4.4375 2.28125 -4.296875 L 3.265625 -2.375 L 2.875 -1.984375 C 2.734375 -1.859375 2.40625 -1.546875 2.28125 -1.421875 C 1.4375 -0.578125 1.15625 -0.28125 0.515625 -0.25 C 0.421875 -0.25 0.34375 -0.25 0.34375 -0.09375 C 0.34375 -0.0625 0.375 0 0.453125 0 C 0.640625 0 0.890625 -0.03125 1.09375 -0.03125 C 1.21875 -0.03125 1.390625 -0.03125 1.5 -0.015625 C 1.625 -0.015625 1.78125 0 1.90625 0 C 1.9375 0 2.046875 0 2.046875 -0.140625 C 2.046875 -0.25 1.96875 -0.25 1.921875 -0.25 C 1.859375 -0.265625 1.703125 -0.28125 1.703125 -0.421875 C 1.703125 -0.53125 1.796875 -0.625 1.953125 -0.78125 L 3.359375 -2.171875 L 4.203125 -0.515625 C 4.25 -0.453125 4.25 -0.4375 4.25 -0.421875 C 4.25 -0.390625 4.125 -0.265625 3.875 -0.25 C 3.8125 -0.25 3.734375 -0.25 3.734375 -0.09375 C 3.734375 -0.09375 3.734375 0 3.84375 0 C 4 0 4.171875 -0.015625 4.3125 -0.015625 C 4.453125 -0.015625 4.625 -0.03125 4.765625 -0.03125 C 4.890625 -0.03125 5.046875 -0.03125 5.171875 -0.015625 C 5.296875 -0.015625 5.4375 0 5.546875 0 C 5.59375 0 5.703125 0 5.703125 -0.15625 C 5.703125 -0.25 5.609375 -0.25 5.5 -0.25 C 5.09375 -0.25 5.0625 -0.328125 5 -0.453125 Z M 3.875 -2.65625 "
           id="path1675" />
      </symbol>
      <symbol
         overflow="visible"
         id="symbol6370">
        <path
           style="stroke:none;"
           d="M 4.71875 -3.921875 C 4.859375 -4.0625 5 -4.1875 5.15625 -4.296875 C 5.4375 -4.484375 5.6875 -4.5 5.78125 -4.515625 C 5.859375 -4.515625 5.9375 -4.515625 5.9375 -4.65625 C 5.9375 -4.703125 5.90625 -4.765625 5.84375 -4.765625 C 5.671875 -4.765625 5.46875 -4.734375 5.28125 -4.734375 C 5.0625 -4.734375 4.765625 -4.765625 4.5625 -4.765625 C 4.515625 -4.765625 4.421875 -4.765625 4.421875 -4.609375 C 4.421875 -4.515625 4.515625 -4.515625 4.546875 -4.515625 C 4.75 -4.5 4.75 -4.421875 4.75 -4.375 C 4.75 -4.3125 4.703125 -4.265625 4.65625 -4.1875 C 4.609375 -4.125 4.578125 -4.078125 4.53125 -4.046875 L 2.796875 -2.21875 L 1.875 -4.265625 C 1.828125 -4.359375 1.828125 -4.375 1.828125 -4.390625 C 1.828125 -4.515625 2.15625 -4.515625 2.203125 -4.515625 C 2.296875 -4.515625 2.390625 -4.515625 2.390625 -4.65625 C 2.390625 -4.671875 2.390625 -4.765625 2.265625 -4.765625 C 2.0625 -4.765625 1.546875 -4.734375 1.34375 -4.734375 C 1.15625 -4.734375 0.71875 -4.765625 0.546875 -4.765625 C 0.484375 -4.765625 0.40625 -4.734375 0.40625 -4.609375 C 0.40625 -4.515625 0.5 -4.515625 0.59375 -4.515625 C 1 -4.515625 1.03125 -4.453125 1.09375 -4.296875 L 2.171875 -1.90625 L 1.859375 -0.640625 C 1.765625 -0.28125 1.765625 -0.265625 1.21875 -0.25 C 1.09375 -0.25 1.015625 -0.25 1.015625 -0.109375 C 1.015625 -0.03125 1.0625 0 1.125 0 C 1.25 0 1.421875 -0.015625 1.546875 -0.015625 C 1.6875 -0.015625 1.890625 -0.03125 2.015625 -0.03125 C 2.15625 -0.03125 2.3125 -0.015625 2.453125 -0.015625 C 2.609375 -0.015625 2.78125 0 2.921875 0 C 2.96875 0 3.078125 0 3.078125 -0.15625 C 3.078125 -0.25 3 -0.25 2.84375 -0.25 C 2.734375 -0.25 2.703125 -0.25 2.578125 -0.265625 C 2.453125 -0.28125 2.421875 -0.296875 2.421875 -0.359375 C 2.421875 -0.40625 2.515625 -0.734375 2.5625 -0.921875 C 2.609375 -1.15625 2.765625 -1.75 2.78125 -1.78125 C 2.796875 -1.890625 2.796875 -1.90625 2.875 -1.96875 Z M 4.71875 -3.921875 "
           id="path1927" />
      </symbol>
    </g>
    <g
       id="g6047">
      <symbol
         overflow="visible"
         id="symbol4157">
        <path
           style="stroke:none;"
           d=""
           id="path475" />
      </symbol>
      <symbol
         overflow="visible"
         id="symbol1826">
        <path
           style="stroke:none;"
           d="M 0.875 -0.59375 C 0.84375 -0.4375 0.78125 -0.203125 0.78125 -0.15625 C 0.78125 0.015625 0.921875 0.109375 1.078125 0.109375 C 1.203125 0.109375 1.375 0.03125 1.453125 -0.171875 C 1.46875 -0.203125 1.796875 -1.5625 1.84375 -1.75 C 1.921875 -2.078125 2.109375 -2.765625 2.15625 -3.046875 C 2.203125 -3.171875 2.484375 -3.640625 2.71875 -3.859375 C 2.796875 -3.921875 3.09375 -4.1875 3.515625 -4.1875 C 3.78125 -4.1875 3.921875 -4.0625 3.9375 -4.0625 C 3.640625 -4.015625 3.421875 -3.78125 3.421875 -3.515625 C 3.421875 -3.359375 3.53125 -3.171875 3.796875 -3.171875 C 4.0625 -3.171875 4.34375 -3.40625 4.34375 -3.765625 C 4.34375 -4.109375 4.03125 -4.40625 3.515625 -4.40625 C 2.875 -4.40625 2.4375 -3.921875 2.25 -3.640625 C 2.15625 -4.09375 1.796875 -4.40625 1.328125 -4.40625 C 0.875 -4.40625 0.6875 -4.015625 0.59375 -3.84375 C 0.421875 -3.5 0.296875 -2.90625 0.296875 -2.875 C 0.296875 -2.765625 0.390625 -2.765625 0.40625 -2.765625 C 0.515625 -2.765625 0.515625 -2.78125 0.578125 -3 C 0.75 -3.703125 0.953125 -4.1875 1.3125 -4.1875 C 1.46875 -4.1875 1.609375 -4.109375 1.609375 -3.734375 C 1.609375 -3.515625 1.578125 -3.40625 1.453125 -2.890625 Z M 0.875 -0.59375 "
           id="path6365" />
      </symbol>
      <symbol
         overflow="visible"
         id="symbol3261">
        <path
           style="stroke:none;"
           d=""
           id="path3063" />
      </symbol>
      <symbol
         overflow="visible"
         id="symbol7331">
        <path
           style="stroke:none;"
           d="M 3.875 -2.65625 L 4.53125 -3.328125 C 5.421875 -4.203125 5.703125 -4.46875 6.328125 -4.515625 C 6.421875 -4.515625 6.5 -4.515625 6.5 -4.65625 C 6.5 -4.734375 6.421875 -4.765625 6.40625 -4.765625 C 6.203125 -4.765625 5.953125 -4.734375 5.75 -4.734375 C 5.5625 -4.734375 5.125 -4.765625 4.9375 -4.765625 C 4.890625 -4.765625 4.796875 -4.734375 4.796875 -4.609375 C 4.796875 -4.59375 4.796875 -4.515625 4.90625 -4.515625 C 4.96875 -4.5 5.140625 -4.484375 5.140625 -4.328125 C 5.140625 -4.234375 5.03125 -4.125 4.96875 -4.046875 C 4.90625 -4 4.03125 -3.140625 3.765625 -2.875 L 3.0625 -4.234375 C 3.046875 -4.265625 3.03125 -4.3125 3.03125 -4.328125 C 3.03125 -4.390625 3.15625 -4.5 3.40625 -4.515625 C 3.453125 -4.515625 3.546875 -4.515625 3.546875 -4.65625 C 3.546875 -4.671875 3.546875 -4.765625 3.421875 -4.765625 C 3.28125 -4.765625 3.109375 -4.734375 2.96875 -4.734375 C 2.8125 -4.734375 2.65625 -4.734375 2.515625 -4.734375 C 2.390625 -4.734375 2.21875 -4.734375 2.09375 -4.734375 C 1.984375 -4.75 1.828125 -4.765625 1.71875 -4.765625 C 1.6875 -4.765625 1.578125 -4.765625 1.578125 -4.609375 C 1.578125 -4.515625 1.671875 -4.515625 1.78125 -4.515625 C 2.1875 -4.515625 2.21875 -4.4375 2.28125 -4.296875 L 3.265625 -2.375 L 2.875 -1.984375 C 2.734375 -1.859375 2.40625 -1.546875 2.28125 -1.421875 C 1.4375 -0.578125 1.15625 -0.28125 0.515625 -0.25 C 0.421875 -0.25 0.34375 -0.25 0.34375 -0.09375 C 0.34375 -0.0625 0.375 0 0.453125 0 C 0.640625 0 0.890625 -0.03125 1.09375 -0.03125 C 1.21875 -0.03125 1.390625 -0.03125 1.5 -0.015625 C 1.625 -0.015625 1.78125 0 1.90625 0 C 1.9375 0 2.046875 0 2.046875 -0.140625 C 2.046875 -0.25 1.96875 -0.25 1.921875 -0.25 C 1.859375 -0.265625 1.703125 -0.28125 1.703125 -0.421875 C 1.703125 -0.53125 1.796875 -0.625 1.953125 -0.78125 L 3.359375 -2.171875 L 4.203125 -0.515625 C 4.25 -0.453125 4.25 -0.4375 4.25 -0.421875 C 4.25 -0.390625 4.125 -0.265625 3.875 -0.25 C 3.8125 -0.25 3.734375 -0.25 3.734375 -0.09375 C 3.734375 -0.09375 3.734375 0 3.84375 0 C 4 0 4.171875 -0.015625 4.3125 -0.015625 C 4.453125 -0.015625 4.625 -0.03125 4.765625 -0.03125 C 4.890625 -0.03125 5.046875 -0.03125 5.171875 -0.015625 C 5.296875 -0.015625 5.4375 0 5.546875 0 C 5.59375 0 5.703125 0 5.703125 -0.15625 C 5.703125 -0.25 5.609375 -0.25 5.5 -0.25 C 5.09375 -0.25 5.0625 -0.328125 5 -0.453125 Z M 3.875 -2.65625 "
           id="path7995" />
      </symbol>
      <symbol
         overflow="visible"
         id="symbol4083">
        <path
           style="stroke:none;"
           d="M 5.453125 -4.484375 C 5.515625 -4.546875 5.546875 -4.59375 5.546875 -4.6875 C 5.546875 -4.765625 5.5 -4.765625 5.359375 -4.765625 L 2.109375 -4.765625 C 1.9375 -4.765625 1.921875 -4.75 1.875 -4.625 L 1.484375 -3.359375 C 1.46875 -3.28125 1.46875 -3.28125 1.46875 -3.25 C 1.46875 -3.21875 1.484375 -3.15625 1.578125 -3.15625 C 1.671875 -3.15625 1.6875 -3.203125 1.703125 -3.265625 C 2.046875 -4.25 2.578125 -4.515625 3.484375 -4.515625 L 4.734375 -4.515625 L 0.671875 -0.3125 C 0.625 -0.265625 0.5625 -0.1875 0.5625 -0.078125 C 0.5625 0 0.625 0 0.75 0 L 4.125 0 C 4.296875 0 4.3125 0 4.34375 -0.140625 L 4.84375 -1.6875 C 4.875 -1.78125 4.875 -1.796875 4.875 -1.8125 C 4.875 -1.8125 4.875 -1.90625 4.765625 -1.90625 C 4.671875 -1.90625 4.65625 -1.875 4.609375 -1.71875 C 4.296875 -0.765625 3.9375 -0.28125 2.71875 -0.28125 L 1.390625 -0.28125 Z M 5.453125 -4.484375 "
           id="path8831" />
      </symbol>
    </g>
    <g
       id="g5761">
      <symbol
         overflow="visible"
         id="symbol609">
        <path
           style="stroke:none;"
           d=""
           id="path2934" />
      </symbol>
      <symbol
         overflow="visible"
         id="symbol1280">
        <path
           style="stroke:none;"
           d="M 0.875 -0.59375 C 0.84375 -0.4375 0.78125 -0.203125 0.78125 -0.15625 C 0.78125 0.015625 0.921875 0.109375 1.078125 0.109375 C 1.203125 0.109375 1.375 0.03125 1.453125 -0.171875 C 1.46875 -0.203125 1.796875 -1.5625 1.84375 -1.75 C 1.921875 -2.078125 2.109375 -2.765625 2.15625 -3.046875 C 2.203125 -3.171875 2.484375 -3.640625 2.71875 -3.859375 C 2.796875 -3.921875 3.09375 -4.1875 3.515625 -4.1875 C 3.78125 -4.1875 3.921875 -4.0625 3.9375 -4.0625 C 3.640625 -4.015625 3.421875 -3.78125 3.421875 -3.515625 C 3.421875 -3.359375 3.53125 -3.171875 3.796875 -3.171875 C 4.0625 -3.171875 4.34375 -3.40625 4.34375 -3.765625 C 4.34375 -4.109375 4.03125 -4.40625 3.515625 -4.40625 C 2.875 -4.40625 2.4375 -3.921875 2.25 -3.640625 C 2.15625 -4.09375 1.796875 -4.40625 1.328125 -4.40625 C 0.875 -4.40625 0.6875 -4.015625 0.59375 -3.84375 C 0.421875 -3.5 0.296875 -2.90625 0.296875 -2.875 C 0.296875 -2.765625 0.390625 -2.765625 0.40625 -2.765625 C 0.515625 -2.765625 0.515625 -2.78125 0.578125 -3 C 0.75 -3.703125 0.953125 -4.1875 1.3125 -4.1875 C 1.46875 -4.1875 1.609375 -4.109375 1.609375 -3.734375 C 1.609375 -3.515625 1.578125 -3.40625 1.453125 -2.890625 Z M 0.875 -0.59375 "
           id="path8664" />
      </symbol>
      <symbol
         overflow="visible"
         id="symbol6307">
        <path
           style="stroke:none;"
           d=""
           id="path8003" />
      </symbol>
      <symbol
         overflow="visible"
         id="symbol3044">
        <path
           style="stroke:none;"
           d="M 4.71875 -3.921875 C 4.859375 -4.0625 5 -4.1875 5.15625 -4.296875 C 5.4375 -4.484375 5.6875 -4.5 5.78125 -4.515625 C 5.859375 -4.515625 5.9375 -4.515625 5.9375 -4.65625 C 5.9375 -4.703125 5.90625 -4.765625 5.84375 -4.765625 C 5.671875 -4.765625 5.46875 -4.734375 5.28125 -4.734375 C 5.0625 -4.734375 4.765625 -4.765625 4.5625 -4.765625 C 4.515625 -4.765625 4.421875 -4.765625 4.421875 -4.609375 C 4.421875 -4.515625 4.515625 -4.515625 4.546875 -4.515625 C 4.75 -4.5 4.75 -4.421875 4.75 -4.375 C 4.75 -4.3125 4.703125 -4.265625 4.65625 -4.1875 C 4.609375 -4.125 4.578125 -4.078125 4.53125 -4.046875 L 2.796875 -2.21875 L 1.875 -4.265625 C 1.828125 -4.359375 1.828125 -4.375 1.828125 -4.390625 C 1.828125 -4.515625 2.15625 -4.515625 2.203125 -4.515625 C 2.296875 -4.515625 2.390625 -4.515625 2.390625 -4.65625 C 2.390625 -4.671875 2.390625 -4.765625 2.265625 -4.765625 C 2.0625 -4.765625 1.546875 -4.734375 1.34375 -4.734375 C 1.15625 -4.734375 0.71875 -4.765625 0.546875 -4.765625 C 0.484375 -4.765625 0.40625 -4.734375 0.40625 -4.609375 C 0.40625 -4.515625 0.5 -4.515625 0.59375 -4.515625 C 1 -4.515625 1.03125 -4.453125 1.09375 -4.296875 L 2.171875 -1.90625 L 1.859375 -0.640625 C 1.765625 -0.28125 1.765625 -0.265625 1.21875 -0.25 C 1.09375 -0.25 1.015625 -0.25 1.015625 -0.109375 C 1.015625 -0.03125 1.0625 0 1.125 0 C 1.25 0 1.421875 -0.015625 1.546875 -0.015625 C 1.6875 -0.015625 1.890625 -0.03125 2.015625 -0.03125 C 2.15625 -0.03125 2.3125 -0.015625 2.453125 -0.015625 C 2.609375 -0.015625 2.78125 0 2.921875 0 C 2.96875 0 3.078125 0 3.078125 -0.15625 C 3.078125 -0.25 3 -0.25 2.84375 -0.25 C 2.734375 -0.25 2.703125 -0.25 2.578125 -0.265625 C 2.453125 -0.28125 2.421875 -0.296875 2.421875 -0.359375 C 2.421875 -0.40625 2.515625 -0.734375 2.5625 -0.921875 C 2.609375 -1.15625 2.765625 -1.75 2.78125 -1.78125 C 2.796875 -1.890625 2.796875 -1.90625 2.875 -1.96875 Z M 4.71875 -3.921875 "
           id="path1653" />
      </symbol>
      <symbol
         overflow="visible"
         id="symbol7062">
        <path
           style="stroke:none;"
           d="M 5.453125 -4.484375 C 5.515625 -4.546875 5.546875 -4.59375 5.546875 -4.6875 C 5.546875 -4.765625 5.5 -4.765625 5.359375 -4.765625 L 2.109375 -4.765625 C 1.9375 -4.765625 1.921875 -4.75 1.875 -4.625 L 1.484375 -3.359375 C 1.46875 -3.28125 1.46875 -3.28125 1.46875 -3.25 C 1.46875 -3.21875 1.484375 -3.15625 1.578125 -3.15625 C 1.671875 -3.15625 1.6875 -3.203125 1.703125 -3.265625 C 2.046875 -4.25 2.578125 -4.515625 3.484375 -4.515625 L 4.734375 -4.515625 L 0.671875 -0.3125 C 0.625 -0.265625 0.5625 -0.1875 0.5625 -0.078125 C 0.5625 0 0.625 0 0.75 0 L 4.125 0 C 4.296875 0 4.3125 0 4.34375 -0.140625 L 4.84375 -1.6875 C 4.875 -1.78125 4.875 -1.796875 4.875 -1.8125 C 4.875 -1.8125 4.875 -1.90625 4.765625 -1.90625 C 4.671875 -1.90625 4.65625 -1.875 4.609375 -1.71875 C 4.296875 -0.765625 3.9375 -0.28125 2.71875 -0.28125 L 1.390625 -0.28125 Z M 5.453125 -4.484375 "
           id="path2162" />
      </symbol>
    </g>
  </defs>
  <sodipodi:namedview
     id="base"
     pagecolor="#ffffff"
     bordercolor="#666666"
     borderopacity="1.0"
     inkscape:pageopacity="0.0"
     inkscape:pageshadow="2"
     inkscape:zoom="2.8"
     inkscape:cx="265.09519"
     inkscape:cy="192.53242"
     inkscape:document-units="mm"
     inkscape:current-layer="g1579"
     inkscape:document-rotation="0"
     showgrid="false"
     inkscape:window-width="2560"
     inkscape:window-height="1369"
     inkscape:window-x="-8"
     inkscape:window-y="-8"
     inkscape:window-maximized="1" />
  <metadata
     id="metadata5">
    <rdf:RDF>
      <cc:Work
         rdf:about="">
        <dc:format>image/svg+xml</dc:format>
        <dc:type
           rdf:resource="http://purl.org/dc/dcmitype/StillImage" />
        <dc:title />
      </cc:Work>
    </rdf:RDF>
  </metadata>
  <g
     inkscape:label="Layer 1"
     inkscape:groupmode="layer"
     id="layer1">
    <g
       inkscape:label=""
       transform="matrix(0.72311131,0,0,0.72311131,-22.030529,-16.586328)"
       id="g844">
      <g
         id="g3029">
        <g
           style="fill:#000000;fill-opacity:1"
           id="g7736">
          <use
             xlink:href="#symbol6747"
             x="91.925003"
             y="81.962997"
             id="use6803"
             width="100%"
             height="100%" />
        </g>
      </g>
    </g>
    <g
       inkscape:label=""
       transform="matrix(0.72311131,0,0,0.72311131,4.5925857,11.975492)"
       id="g877">
      <g
         id="g1981">
        <g
           style="fill:#000000;fill-opacity:1"
           id="g5575">
          <use
             xlink:href="#symbol2511"
             x="91.925003"
             y="81.962997"
             id="use2951"
             width="100%"
             height="100%" />
        </g>
      </g>
    </g>
    <g
       inkscape:label=""
       transform="matrix(0.72311131,0,0,0.72311131,31.403308,-16.586328)"
       id="g919">
      <g
         id="g9866">
        <g
           style="fill:#000000;fill-opacity:1"
           id="g910">
          <use
             xlink:href="#symbol1696"
             x="91.925003"
             y="81.962997"
             id="use8507"
             width="100%"
             height="100%" />
        </g>
      </g>
    </g>
    <path
       style="fill:none;stroke:#000000;stroke-width:0.191624;stroke-linecap:butt;stroke-linejoin:miter;stroke-miterlimit:4;stroke-dasharray:none;stroke-opacity:1;marker-end:url(#marker1244)"
       d="M 77.271755,64.007115 C 83.489759,57.789112 89.707764,51.571108 95.92577,45.353103"
       id="path932"
       inkscape:path-effect="#path-effect934"
       inkscape:original-d="M 77.271755,64.007115 C 83.48995,57.789303 89.707954,51.571298 95.92577,45.353103" />
    <path
       style="fill:none;stroke:#000000;stroke-width:0.191624;stroke-linecap:butt;stroke-linejoin:miter;stroke-miterlimit:4;stroke-dasharray:none;stroke-opacity:1;marker-end:url(#marker1254)"
       d="M 70.472949,64.007116 C 64.254946,57.789112 58.036942,51.571107 51.818937,45.353101"
       id="path932-7"
       inkscape:path-effect="#path-effect957"
       inkscape:original-d="M 70.472949,64.007116 C 64.255137,57.788922 58.037132,51.570917 51.818937,45.353101" />
    <path
       style="fill:none;stroke:#000000;stroke-width:0.191323px;stroke-linecap:butt;stroke-linejoin:miter;stroke-opacity:1;marker-start:url(#Arrow1Lstart);marker-end:url(#marker1316)"
       d="m 53.766335,39.920889 c 6.970616,-5.165658 13.941256,-10.331334 20.569422,-10.331199 6.628166,1.35e-4 12.913349,5.165692 19.198471,10.331199"
       id="path1292"
       inkscape:path-effect="#path-effect1294"
       inkscape:original-d="M 53.766335,39.920889 C 60.737171,34.755529 67.707812,29.589853 74.678251,24.423865 80.9639,29.589853 87.249083,34.75541 93.534228,39.920889"
       sodipodi:nodetypes="ccc" />
    <g
       inkscape:label=""
       transform="matrix(0.62100912,0,0,0.62100912,12.42452,-14.40731)"
       id="g1579">
      <g
         id="g4377"
         transform="translate(-0.60864837,-16.281344)">
        <g
           style="fill:#000000;fill-opacity:1"
           id="g7492">
          <use
             xlink:href="#symbol9450"
             x="91.925003"
             y="81.962997"
             id="use3525"
             width="100%"
             height="100%" />
        </g>
        <g
           style="fill:#000000;fill-opacity:1"
           id="g6680">
          <use
             xlink:href="#symbol43"
             x="96.419998"
             y="83.457001"
             id="use1800"
             width="100%"
             height="100%" />
        </g>
        <g
           style="fill:#000000;fill-opacity:1"
           id="g58">
          <use
             xlink:href="#symbol6370"
             x="103.49771"
             y="83.457001"
             id="use3576"
             width="100%"
             height="100%" />
        </g>
      </g>
    </g>
    <g
       inkscape:label=""
       transform="matrix(0.62100912,0,0,0.62100912,-8.5401641,6.2840549)"
       id="g1701">
      <g
         id="g2194">
        <g
           style="fill:#000000;fill-opacity:1"
           id="g1938">
          <use
             xlink:href="#symbol1826"
             x="91.925003"
             y="81.962997"
             id="use776"
             width="100%"
             height="100%" />
        </g>
        <g
           style="fill:#000000;fill-opacity:1"
           id="g583">
          <use
             xlink:href="#symbol7331"
             x="96.419998"
             y="83.457001"
             id="use5007"
             width="100%"
             height="100%" />
        </g>
        <g
           style="fill:#000000;fill-opacity:1"
           id="g4241">
          <use
             xlink:href="#symbol4083"
             x="103.49771"
             y="83.457001"
             id="use9115"
             width="100%"
             height="100%" />
        </g>
      </g>
    </g>
    <g
       inkscape:label=""
       transform="matrix(0.62100912,0,0,0.62100912,33.683404,6.2840549)"
       id="g1842">
      <g
         id="g4876">
        <g
           style="fill:#000000;fill-opacity:1"
           id="g4951">
          <use
             xlink:href="#symbol1280"
             x="91.925003"
             y="81.962997"
             id="use3947"
             width="100%"
             height="100%" />
        </g>
        <g
           style="fill:#000000;fill-opacity:1"
           id="g6928">
          <use
             xlink:href="#symbol3044"
             x="96.419998"
             y="83.457001"
             id="use513"
             width="100%"
             height="100%" />
        </g>
        <g
           style="fill:#000000;fill-opacity:1"
           id="g9563">
          <use
             xlink:href="#symbol7062"
             x="102.81846"
             y="83.457001"
             id="use3286"
             width="100%"
             height="100%" />
        </g>
      </g>
    </g>
  </g>
</svg>
